<?xml version="1.0" encoding="utf-8"?>
<!-- Uploaded to: SVG Repo, www.svgrepo.com, Generator: SVG Repo Mixer Tools -->
<svg width="800px" height="800px" viewBox="0 0 1024 1024" class="icon"  version="1.1" xmlns="http://www.w3.org/2000/svg"><path d="M387.220119 648.938519l124.069305 297.241077h-0.562113l123.881933-297.241077z" fill="#F9AC82" /><path d="M507.353608 858.656854c-4.497928 0-8.621114-2.624218-10.307453-6.934775l-67.84469-163.05169c-2.436847-5.809525 0.374742-12.369559 5.996897-14.618011 5.809525-2.436847 12.369559 0.374742 14.618011 5.996896L517.662086 843.100965c2.436847 5.809525-0.374742 12.369559-5.996897 14.61801-1.312621 0.563137-2.811589 0.937879-4.311581 0.937879z" fill="#F8BC95" /><path d="M672.091638 545.859888c-4.497928 0-8.621114 0.936855-12.55693 2.624218 9.932712-21.178044 15.368519-44.60454 15.368519-69.531029 0-90.709073-73.466844-164.175916-164.175916-164.175916s-164.175916 73.466844-164.175917 164.175916c0 24.926488 5.622154 48.540355 15.368519 69.531029-3.935815-1.686339-8.059001-2.624218-12.55693-2.624218-17.4296 0-31.672869 14.243269-31.672868 31.672868 0 17.4296 14.243269 31.672869 31.672868 31.672869 6.184267 0 11.994817-1.87371 16.867487-4.87267-3.186331 4.87267-4.87267 10.683219-4.87267 16.867487 0 17.4296 14.243269 31.672869 31.672869 31.672868 10.682196 0 20.241189-5.434783 26.050714-13.493785-0.187371 1.124226-0.187371 2.436847-0.187371 3.561074 0 17.4296 14.243269 31.672869 31.672869 31.672868 12.744301 0 23.613867-7.496888 28.674932-18.179084-0.187371 1.124226-0.187371 2.249476-0.187371 3.373702 0 17.4296 14.243269 31.672869 31.672869 31.672869s31.672869-14.243269 31.672868-31.672869c0-1.124226 0-2.249476-0.187371-3.373702 5.060041 10.682196 15.930632 18.179084 28.674933 18.179084 17.4296 0 31.672869-14.243269 31.672868-31.672868 0-1.124226 0-2.436847-0.187371-3.561074 5.809525 8.246372 15.181148 13.493785 26.050715 13.493785 17.4296 0 31.672869-14.243269 31.672868-31.672868 0-6.184267-1.87371-11.994817-4.87267-16.867487 4.87267 2.99896 10.683219 4.87267 16.867487 4.87267 17.4296 0 31.672869-14.243269 31.672868-31.672869 0-17.428576-14.243269-31.672869-31.672868-31.672868z" fill="#0083BF" /><path d="M383.472699 509.314349c-5.434783 0-10.120083-3.935815-11.057961-9.370599-5.996896-36.545539 2.624218-73.092102 24.364375-103.078631 21.552786-29.98653 53.600397-49.852976 89.959588-55.662502 6.184267-0.936855 11.994817 3.186331 12.931672 9.370599s-3.186331 11.994817-9.370599 12.931671c-30.548643 5.060041-57.348841 21.552786-75.340553 46.666646-17.991713 25.113859-25.30123 55.849873-20.241189 86.398515 0.936855 6.184267-3.186331 11.994817-9.370599 12.931672-0.750508-0.187371-1.312621-0.187371-1.874734-0.187371z" fill="#0095DA" /><path d="M646.415665 337.828915c-3.748444 0-7.309517 0.749484-10.494824 2.249476 8.246372-17.804342 12.931672-37.483418 12.931672-58.473067 0-76.091062-61.659398-137.937831-137.937831-137.937831-76.091062 0-137.937831 61.659398-137.937831 137.937831 0 20.990673 4.685299 40.668725 12.931671 58.473067-3.186331-1.311597-6.747404-2.249476-10.494824-2.249476-14.618011 0-26.612827 11.994817-26.612828 26.612828 0 14.618011 11.994817 26.612827 26.612828 26.612827 5.247412 0 10.120083-1.498968 14.055897-4.123186-2.624218 4.123186-4.123186 8.995856-4.123186 14.243268 0 14.618011 11.994817 26.612827 26.612828 26.612828 8.995856 0 17.054858-4.497928 21.740157-11.432704-0.187371 0.936855-0.187371 2.061081-0.187371 2.99896 0 14.618011 11.994817 26.612827 26.612827 26.612828 10.682196 0 19.866447-6.184267 23.989633-15.368519-0.187371 0.936855-0.187371 1.87371-0.187371 2.811589 0 14.618011 11.994817 26.612827 26.612828 26.612827 14.618011 0 26.612827-11.994817 26.612827-26.612827 0-0.936855 0-1.87371-0.187371-2.811589 4.310557 8.995856 13.493785 15.368519 23.989633 15.368519 14.618011 0 26.612827-11.994817 26.612827-26.612828 0-0.936855 0-2.061081-0.187371-2.99896 4.87267 6.934775 12.744301 11.432704 21.740157 11.432704 14.618011 0 26.612827-11.994817 26.612828-26.612828 0-5.247412-1.498968-10.120083-4.123186-14.243268 4.123186 2.624218 8.995856 4.123186 14.055897 4.123186 14.618011 0 26.612827-11.994817 26.612828-26.612827 0-14.618011-11.244309-26.612827-25.863344-26.612828z" fill="#FFCB05" /><path d="M409.898155 308.780265c-5.434783 0-10.120083-3.935815-11.057961-9.370599-5.060041-31.110756 2.249476-62.408882 20.803302-87.897483 18.366455-25.675972 45.72979-42.543459 76.840546-47.603501 6.184267-0.936855 11.994817 3.186331 12.931671 9.370599s-3.186331 11.994817-9.370598 12.931671c-25.113859 4.123186-47.228758 17.804342-62.221511 38.420273-14.992753 20.803302-20.803302 46.104532-16.680116 71.217368 0.936855 6.184267-3.186331 11.994817-9.370599 12.931672h-1.874734z" fill="#FFDE2F" /><path d="M597.500568 156.973907m-56.224615 0a56.224615 56.224615 0 1 0 112.44923 0 56.224615 56.224615 0 1 0-112.44923 0Z" fill="#EE3544" /><path d="M621.864943 167.093989c-0.562113 0-0.936855 0-1.498968-0.187371-6.184267-0.749484-10.494825-6.371638-9.745341-12.556929 0.936855-6.934775-6.371638-9.55797-8.621114-10.120083-5.996896-1.686339-9.55797-7.684259-7.87163-13.681155 1.498968-5.996896 7.87163-9.55797 13.868526-8.059002 1.124226 0.374742 7.309517 2.061081 13.119043 6.747404 8.995856 6.934775 13.306414 17.054858 11.807446 28.111796-0.750508 5.622154-5.623178 9.745341-11.057962 9.74534z" fill="#F15C5C" /><path d="M677.151679 534.990321c5.996896-17.991713 9.183227-36.73291 9.183227-56.037244 0-29.611787-7.496888-57.536212-20.42856-82.087958 11.057962-6.560033 18.553826-18.741197 18.553826-32.423376 0-18.553826-13.493785-34.109716-31.298126-37.296047a149.256883 149.256883 0 0 0 7.122146-45.54242c0-26.425456-6.934775-51.351945-19.115939-72.90473 14.618011-12.369559 23.989633-30.923385 23.989633-51.539316 0-22.30227-11.057962-42.168717-27.737053-54.538276 4.123186-6.184267 11.620075-14.243269 24.739117-17.61697 5.996896-1.498968 9.55797-7.684259 8.059001-13.681156s-7.684259-9.55797-13.681155-8.059002c-21.365415 5.622154-33.172861 19.30331-39.169757 29.424417-6.184267-1.87371-12.744301-2.811589-19.490681-2.811589-29.049674 0-53.975139 18.553826-63.346761 44.60454-7.496888-1.124226-15.368519-1.87371-23.239126-1.87371-82.275329 0-149.18214 66.90681-149.182139 149.18214 0 15.743261 2.436847 30.923385 7.122146 45.542419-17.804342 3.186331-31.298127 18.741197-31.298127 37.296047 0 13.868527 7.496888 25.863343 18.553826 32.423376-13.119043 24.551746-20.42856 52.476171-20.42856 82.087958 0 19.30331 2.99896 38.045531 9.183228 56.037244-21.365415 2.436847-37.85816 20.615931-37.85816 42.73083 0 23.802262 19.679076 43.292943 43.667685 42.918202v0.749484c0 19.30331 12.744301 35.608684 30.173901 41.043467L500.421905 947.864911c0.187371 1.686339 0.749484 3.373702 1.87371 4.87267 2.061081 3.186331 5.622154 5.060041 9.370598 5.060042h0.562113c3.748444 0 7.309517-1.87371 9.370599-5.060042 0.936855-1.498968 1.686339-3.186331 1.87371-4.87267l118.820868-285.24626c17.4296-5.434783 30.173901-21.740157 30.173901-41.043467v-0.749484h0.749484c23.613867 0 42.918201-19.30331 42.918201-42.918202-1.12525-22.301246-17.805366-40.481354-38.98341-42.917177zM597.500568 111.993601c6.184267 0 12.182188 1.311597 17.616971 3.561073 1.124226 0.936855 2.436847 1.686339 3.935815 2.061081 0.187371 0 0.374742 0.187371 0.749484 0.187371 13.493785 7.684259 22.677012 22.30227 22.677012 38.982386 0 24.739117-20.241189 44.979282-44.979282 44.979282s-44.979282-20.241189-44.979282-44.979282c0.187371-24.550722 20.240165-44.791911 44.979282-44.791911z m-222.08687 237.080647c2.061081 0 4.123186 0.374742 5.996896 1.311597 4.310557 1.87371 9.183227 0.936855 12.55693-2.436847 3.186331-3.373702 4.123186-8.433743 2.061081-12.55693-7.87163-16.867487-11.994817-34.8592-11.994817-53.787768 0-69.905771 56.786728-126.692498 126.692499-126.692498 6.560033 0 12.931672 0.562113 19.30331 1.498968v0.749484c0 37.108676 30.173901 67.469947 67.469947 67.469947 8.433743 0 16.492745-1.498968 23.989633-4.497928 10.120083 18.179084 15.930632 39.169757 15.930632 61.472027 0 18.741197-3.935815 36.921305-11.994817 53.787768-2.061081 4.310557-1.124226 9.183227 2.061082 12.55693 3.186331 3.373702 8.246372 4.310557 12.556929 2.436847 1.87371-0.749484 3.935815-1.311597 5.996897-1.311597 8.433743 0 15.368519 6.934775 15.368518 15.368518s-6.934775 15.368519-15.368518 15.368519c-2.811589 0-5.622154-0.749484-8.059002-2.436847-4.497928-2.811589-10.307454-2.061081-13.868527 1.498968-3.748444 3.748444-4.310557 9.55797-1.498968 13.868527 1.498968 2.436847 2.436847 5.247412 2.436847 8.246372 0 8.433743-6.934775 15.368519-15.368518 15.368519-5.060041 0-9.745341-2.436847-12.55693-6.560033-2.99896-4.123186-8.433743-5.809525-13.119043-4.123186-4.87267 1.87371-7.684259 6.560033-7.122146 11.807445 0 0.749484 0.187371 1.311597 0.187371 1.686339 0 8.433743-6.934775 15.368519-15.368519 15.368519-5.996896 0-11.432704-3.561073-13.868526-8.808485-2.249476-4.87267-7.87163-7.496888-13.119043-5.996897-5.247412 1.498968-8.808485 6.560033-8.246372 11.994817v1.686339c0 8.433743-6.934775 15.368519-15.368519 15.368519s-15.368519-6.934775-15.368519-15.368519v-1.686339c0.562113-5.434783-2.811589-10.494825-8.246372-11.994817-0.936855-0.374742-2.061081-0.374742-2.99896-0.374742-4.310557 0-8.246372 2.436847-10.120083 6.371639-2.624218 5.434783-8.059001 8.808485-13.868527 8.808485-8.433743 0-15.368519-6.934775-15.368518-15.368519 0-0.562113 0-1.124226 0.187371-1.686339 0.562113-5.060041-2.436847-9.932712-7.122147-11.807445-4.87267-1.87371-10.307454-0.187371-13.119042 4.123186-2.811589 4.123186-7.684259 6.560033-12.55693 6.560033-8.433743 0-15.368519-6.934775-15.368519-15.368519 0-2.811589 0.749484-5.809525 2.436847-8.246372 2.811589-4.497928 2.249476-10.307454-1.498968-13.868527-3.748444-3.748444-9.55797-4.310557-13.868527-1.498968-2.436847 1.498968-5.247412 2.436847-8.059001 2.436847-8.433743 0-15.368519-6.934775-15.368519-15.368519-0.746412-8.621114 6.188363-15.368519 14.622107-15.368518zM511.102053 916.380437L405.025485 662.619675c2.249476-0.562113 4.310557-1.498968 6.371639-2.436847 6.560033 15.180124 21.740157 25.675972 39.357128 25.675972 7.87163 0 15.55589-2.249476 22.114899-6.184268 7.122146 13.681156 21.552786 23.051754 38.045531 23.051755s30.923385-9.370598 38.04553-23.051755c6.560033 3.935815 14.243269 6.184267 22.1149 6.184268 17.616971 0 32.609724-10.494825 39.357128-25.675972 2.061081 0.936855 4.123186 1.686339 6.371638 2.436847L511.102053 916.380437zM672.091638 597.961316c-3.748444 0-7.496888-1.124226-10.869567-3.186331-4.497928-2.811589-10.307454-2.061081-13.868527 1.498968-3.748444 3.748444-4.310557 9.55797-1.498968 13.868527 2.061081 3.373702 3.186331 7.122146 3.186331 10.870591 0 11.245333-9.183227 20.42856-20.42856 20.42856-6.559009 0-12.931672-3.186331-16.680115-8.808486-2.99896-4.123186-8.433743-5.809525-13.119043-4.123186-4.87267 1.87371-7.684259 6.747404-7.122146 11.807445 0.187371 0.936855 0.187371 1.686339 0.187371 2.249477 0 11.245333-9.183227 20.42856-20.42856 20.42856-7.87163 0-15.181148-4.685299-18.553826-11.807446-2.249476-4.87267-7.87163-7.496888-13.119043-5.996896-5.247412 1.498968-8.808485 6.560033-8.059001 11.994816 0 0.749484 0.187371 1.498968 0.187371 2.061081 0 11.245333-9.183227 20.42856-20.42856 20.42856s-20.42856-9.183227-20.42856-20.42856c0-0.749484 0-1.498968 0.187371-2.249476 0.562113-5.434783-2.811589-10.494825-8.246373-11.994816-0.936855-0.374742-2.061081-0.374742-2.99896-0.374742-4.310557 0-8.246372 2.436847-10.120082 6.371638-3.373702 7.122146-10.682196 11.807446-18.553826 11.807446-11.245333 0-20.42856-9.183227-20.42856-20.42856 0-0.749484 0-1.498968 0.187371-2.249476 0.562113-5.060041-2.436847-9.932712-7.122147-11.807446-4.87267-1.87371-10.307454-0.187371-13.119042 4.123186-3.748444 5.434783-10.120083 8.808485-16.680116 8.808486-11.245333 0-20.42856-9.183227-20.42856-20.42856 0-3.748444 1.124226-7.684259 3.186331-10.870591 2.811589-4.497928 2.249476-10.307454-1.498968-13.868527-3.748444-3.748444-9.55797-4.310557-13.868527-1.498968a19.952453 19.952453 0 0 1-10.87059 3.186331c-11.245333 0-20.42856-9.183227-20.42856-20.42856 0-11.245333 9.183227-20.42856 20.42856-20.42856 2.811589 0 5.434783 0.562113 8.059001 1.68634 4.310557 1.87371 9.183227 0.936855 12.55693-2.436848 3.186331-3.373702 4.123186-8.433743 2.061081-12.556929-9.55797-20.42856-14.43064-42.168717-14.43064-64.845729 0-25.113859 6.184267-48.915098 17.054858-69.905771 3.561073 17.054858 18.928568 29.98653 37.108676 29.98653 5.060041 0 9.932712-0.936855 14.430639-2.81159 6.184267 12.55693 19.115939 20.990673 33.922345 20.990673 6.371638 0 12.55693-1.686339 17.991713-4.497928 6.560033 11.245333 18.741197 18.741197 32.610748 18.741197 13.868527 0 26.050714-7.496888 32.610747-18.741197 5.434783 2.99896 11.620075 4.497928 17.991713 4.497928 14.805382 0 27.737053-8.621114 33.922345-20.990673 4.497928 1.87371 9.370598 2.811589 14.43064 2.81159 18.179084 0 33.360232-12.931672 37.108675-29.98653 10.869567 20.990673 17.054858 44.791911 17.054858 69.905771 0 22.677012-4.87267 44.417169-14.430639 64.845729-2.061081 4.310557-1.124226 9.183227 2.061081 12.556929 3.186331 3.373702 8.246372 4.310557 12.556929 2.436848 2.624218-1.124226 5.247412-1.686339 8.059002-1.68634 11.245333 0 20.42856 9.183227 20.42856 20.42856-1.312621 11.621098-10.495848 20.616955-21.741181 20.616955z" fill="#1A3F6F" /></svg>